<?xml version="1.0" encoding="UTF-8" standalone="no"?>
<svg width="284px" height="39px" viewBox="0 0 284 39" version="1.1" xmlns="http://www.w3.org/2000/svg" xmlns:xlink="http://www.w3.org/1999/xlink">
    <!-- Generator: Sketch 3.8.3 (29802) - http://www.bohemiancoding.com/sketch -->
    <title>Group</title>
    <desc>Created with Sketch.</desc>
    <defs>
        <polygon id="path-1" points="19.9212895 0.331034134 0.0215423515 0.331034134 0.0215423515 18.1609204 39.8210367 18.1609204 39.8210367 0.331034134 19.9212895 0.331034134"></polygon>
    </defs>
    <g id="Logo-website" stroke="none" stroke-width="1" fill="none" fill-rule="evenodd">
        <g id="Group">
            <g id="Logo">
                <polygon id="Fill-64" fill="#E51A55" points="38.267115 16.0950088 38.4692541 15.9029229 43.9316764 8.41228824 43.8293502 8.33940329 21.6586802 17.2884551"></polygon>
                <path d="M43.3906043,8.76414665 L23.1005815,16.9534716 L38.1676612,15.8720455 L38.2951201,15.7514083 L43.3906043,8.76414665 Z M20.2157016,17.6209254 L43.8616637,8.07694564 L44.2530164,8.36166372 L38.6275904,16.0698761 L38.3665689,16.3194083 L38.2839899,16.325153 L20.2157016,17.6209254 Z" id="Fill-65" fill="#FFFFFF"></path>
                <polygon id="Fill-66" fill="#003E4E" points="38.267115 16.0950088 21.6586802 17.2884551 33.7144981 20.4637977"></polygon>
                <path d="M23.0557016,17.4177092 L33.6487939,20.2085209 L37.6484905,16.371469 L23.0557016,17.4177092 Z M33.7805613,20.7190746 L20.2605815,17.1566877 L38.8871757,15.8203439 L33.7805613,20.7190746 Z" id="Fill-67" fill="#FFFFFF"></path>
                <polygon id="Fill-68" fill="#00A0E4" points="43.8293502 8.33940329 39.4228622 5.14574968 21.6586802 17.287378"></polygon>
                <path d="M39.4185537,5.42759545 L23.5407636,16.2788369 L43.3582908,8.28052086 L39.4185537,5.42759545 Z M19.7751606,18.2955601 L39.4268116,4.86534008 L44.3022048,8.3954134 L19.7751606,18.2955601 Z" id="Fill-69" fill="#FFFFFF"></path>
                <polygon id="Fill-70" fill="#003E4E" points="38.267115 16.0950088 28.0330619 25.916885 28.0388066 25.9237067 22.1958028 38.0498963 22.2001113 38.2082326 38.3317421 16.0910594"></polygon>
                <path d="M28.2377143,26.0389583 L23.270048,36.3498458 L36.745507,17.8762023 L28.2377143,26.0389583 Z M21.9882781,38.890048 L21.9660177,37.9992718 L21.9897143,37.9486473 L27.7709633,25.9477623 L27.7329052,25.8971378 L27.8747257,25.7499317 L38.1676612,15.8720455 L38.8085461,15.8271656 L21.9882781,38.890048 Z" id="Fill-71" fill="#FFFFFF"></path>
                <polygon id="Fill-72" fill="#00A0E4" points="33.7144981 20.4637977 21.6586802 17.287378 28.0330619 25.916885"></polygon>
                <path d="M22.2309886,17.6769355 L28.0625032,25.568976 L33.2588774,20.5815626 L22.2309886,17.6769355 Z M28.0036207,26.2633578 L21.0852946,16.8988976 L34.1704779,20.3460329 L28.0036207,26.2633578 Z" id="Fill-73" fill="#FFFFFF"></path>
                <polygon id="Fill-74" fill="#96C22C" points="9.01942351 11.3994943 12.7081922 25.3865841 12.7850265 25.4932187 21.6586802 17.287378 8.79933249 10.5636511"></polygon>
                <path d="M9.15549937,11.0095777 L12.8708369,25.1004298 L21.2619418,17.3405158 L9.15549937,11.0095777 Z M12.7516359,25.8382554 L12.4977952,25.4860379 L8.44316561,10.1177244 L22.0529052,17.2353173 L12.7516359,25.8382554 Z" id="Fill-75" fill="#FFFFFF"></path>
                <polygon id="Fill-76" fill="#00A0E4" points="0.684328698 8.74188622 12.7081922 25.3865841 9.01942351 11.3980582"></polygon>
                <path d="M1.2788976,9.17237421 L12.1707105,24.2491479 L8.8287737,11.5790139 L1.2788976,9.17237421 Z M13.2467509,26.5240202 L0.0897597977,8.30996207 L9.21007332,11.2171024 L13.2467509,26.5240202 Z" id="Fill-77" fill="#FFFFFF"></path>
                <g id="Group-85">
                    <mask id="mask-2" fill="white">
                        <use xlink:href="#path-1"></use>
                    </mask>
                    <g id="Clip-79"></g>
                    <polygon id="Fill-78" fill="#96C22C" mask="url(#mask-2)" points="39.4228622 5.14574968 33.0933603 0.561178255 32.9939064 0.561178255 21.6586802 17.287378"></polygon>
                    <path d="M33.0847434,0.83871555 L22.5282731,16.4149128 L39.0232516,5.1403641 L33.0847434,0.83871555 Z M20.7890872,18.1609204 L32.8718331,0.331034134 L33.1691176,0.331034134 L39.8210367,5.15149431 L20.7890872,18.1609204 Z" id="Fill-80" fill="#FFFFFF" mask="url(#mask-2)"></path>
                    <polygon id="Fill-81" fill="#E51A55" mask="url(#mask-2)" points="32.9939064 0.561178255 11.4009305 0.561178255 21.6586802 17.287378"></polygon>
                    <path d="M11.8116713,0.790963338 L21.6672971,16.8637118 L32.5605461,0.790963338 L11.8116713,0.790963338 Z M21.6475499,17.7121214 L10.9898306,0.331034134 L33.4283439,0.331034134 L21.6475499,17.7121214 Z" id="Fill-82" fill="#FFFFFF" mask="url(#mask-2)"></path>
                    <polygon id="Fill-83" fill="#E51A55" mask="url(#mask-2)" points="8.79933249 10.5636511 2.05190898 7.03645006 0.32385335 8.24102655 0.684328698 8.74188622 9.01942351 11.3980582"></polygon>
                    <path d="M0.826149178,8.54549178 L8.68982554,11.0530215 L8.60293805,10.7209102 L2.06878382,7.3042933 L0.646629583,8.29595954 L0.826149178,8.54549178 Z M9.34902149,11.744531 L0.542867257,8.9368445 L0,8.18645259 L2.03503413,6.76717067 L8.99572693,10.4063919 L9.34902149,11.744531 Z" id="Fill-84" fill="#FFFFFF" mask="url(#mask-2)"></path>
                </g>
                <polygon id="Fill-86" fill="#003E4E" points="7.01095828 3.78104172 6.96464223 3.60870291 6.80056131 3.72215929 2.05190898 7.03645006 8.79933249 10.5636511"></polygon>
                <path d="M2.49496334,7.00700885 L8.44316561,10.1177244 L6.8260531,3.98461694 L2.49496334,7.00700885 Z M9.15549937,11.0095777 L1.60849558,7.06301896 L7.10215424,3.23135272 L7.2328445,3.72215929 L9.15549937,11.0095777 Z" id="Fill-87" fill="#FFFFFF"></path>
                <polygon id="Fill-88" fill="#60C5E7" points="7.00557269 3.76308976 7.01095828 3.78104172 9.51884703 4.48942604"></polygon>
                <polygon id="Fill-89" fill="#FFFFFF" points="9.45565613 4.70951707 6.82318078 3.9677421 6.67597472 3.42918331 9.58311504 4.26789886"></polygon>
                <g id="Group-93" transform="translate(6.462705, 0.000000)">
                    <polygon id="Fill-90" fill="#003E4E" points="8.19758281 5.93671302 3.05614159 4.48942604 8.26903161 5.99308217 4.93822503 0.561178255 4.86928951 0.561178255 0.501936789 3.60870291 0.542867257 3.76308976 3.05614159 4.48942604"></polygon>
                    <path d="M3.11933249,4.26789886 L7.74052592,5.56941593 L4.84990139,0.857026549 L0.883595449,3.62126928 L3.11933249,4.26789886 Z M8.77527686,6.37869027 L0.354730721,3.94799494 L0.238402023,3.51176233 L4.79784071,0.331034134 L5.0671201,0.331034134 L8.77527686,6.37869027 Z" id="Fill-92" fill="#FFFFFF"></path>
                </g>
                <polygon id="Fill-94" fill="#00A0E4" points="14.731737 5.99308217 9.51884703 4.48942604 7.01095828 3.78104172 8.79933249 10.5636511 21.6586802 17.287378"></polygon>
                <path d="M8.99572693,10.4063919 L21.0260531,16.6981947 L14.5830948,6.18911757 L9.45421997,4.70951707 L7.33660683,4.11207585 L8.99572693,10.4063919 Z M22.289871,17.8776384 L8.60293805,10.7209102 L6.68566877,3.45144374 L9.58060177,4.26789886 L14.8803793,5.79668774 L22.289871,17.8776384 Z" id="Fill-95" fill="#FFFFFF"></path>
                <polygon id="Fill-96" fill="#E51A55" points="21.913957 27.3569912 17.937957 26.732981 21.9197016 27.3598635 21.6586802 17.287378 15.940622 26.4173856 17.937957 26.732981"></polygon>
                <path d="M16.3208445,26.2450468 L21.6812996,27.0891479 L21.4482832,18.057158 L16.3208445,26.2450468 Z M22.1566675,27.630579 L15.5621947,26.5900834 L21.867641,16.5186751 L22.1566675,27.630579 Z" id="Fill-97" fill="#FFFFFF"></path>
                <polygon id="Fill-98" fill="#00A0E4" points="17.937957 26.732981 15.9395449 26.4188217 22.0852187 38.2811176 22.1972389 38.0484602 21.9197016 27.3598635"></polygon>
                <path d="M16.353158,26.7161062 L21.9520152,37.5267762 L21.693866,27.5576941 L16.353158,26.7161062 Z M22.0920405,38.7959798 L15.5270088,26.1215373 L22.1441011,27.1620329 L22.4273831,38.0987257 L22.0920405,38.7959798 Z" id="Fill-99" fill="#FFFFFF"></path>
                <polygon id="Fill-100" fill="#96C22C" points="28.0330619 25.916885 21.6586802 17.287378 22.0302857 31.6557674 24.1665689 29.6250417"></polygon>
                <path d="M21.9071353,18.0122781 L22.2478635,31.1312111 L24.0093097,29.4595247 L27.7275196,25.8903161 L21.9071353,18.0122781 Z M21.8145032,32.1788875 L21.4091479,16.563555 L28.3389633,25.9420177 L24.3263413,29.7919949 L21.8145032,32.1788875 Z" id="Fill-101" fill="#FFFFFF"></path>
                <polygon id="Fill-102" fill="#60C5E7" points="28.0147509 25.9728951 28.0388066 25.9237067 28.0330619 25.916885 24.1665689 29.6250417"></polygon>
                <polygon id="Fill-103" fill="#FFFFFF" points="24.3263413 29.7934311 24.0078736 29.4609608 28.0639393 25.568976 28.299469 25.8913932 28.2043236 26.1104071"></polygon>
                <polygon id="Fill-104" fill="#E51A55" points="28.0147509 25.9728951 24.1665689 29.6250417 22.0852187 31.62489 24.1665689 29.6250417 22.0302857 31.6557674 22.1958028 38.0484602"></polygon>
                <path d="M22.2633021,31.7720961 L22.4022503,37.0934159 L27.2618458,27.0051327 L24.3263413,29.7919949 L22.2633021,31.7720961 Z M21.9911504,39.0049406 L21.7976283,31.5591858 L28.766579,24.9420936 L21.9911504,39.0049406 Z" id="Fill-105" fill="#FFFFFF"></path>
                <polygon id="Fill-106" fill="#003E4E" points="15.9492389 26.4371327 15.9395449 26.4188217 21.6586802 17.287378 12.7850265 25.4932187 12.8133906 25.532354 22.023464 38.2811176 22.0852187 38.2811176"></polygon>
                <path d="M13.0909279,25.5240961 L20.6056182,35.9265386 L15.6770872,26.4062554 L20.5467358,18.6280303 L13.0909279,25.5240961 Z M22.463646,38.5112617 L21.9056991,38.5112617 L21.8367636,38.4157573 L12.478048,25.4637775 L22.7695474,15.9463666 L16.2045158,26.429952 L22.463646,38.5112617 Z" id="Fill-107" fill="#FFFFFF"></path>
            </g>
            <g id="Bedrijfsnaam" transform="translate(50.624526, 3.590392)">
                <polygon id="Fill-108" fill="#DEE9EE" points="162.663114 16.7068004 166.16668 0.0231748578 170.340459 0.0231748578 170.340459 28.4078315 166.560843 28.4078315 166.955006 9.82659411 164.119388 23.2689204 161.206386 23.2689204 158.370769 9.82659411 158.764932 28.4078315 154.985768 28.4078315 154.985768 0.0231748578 159.159547 0.0231748578"></polygon>
                <path d="M178.648646,14.6901334 L181.051183,14.6901334 C182.048129,14.6901334 182.546376,14.1366632 182.546376,13.0288142 L182.546376,5.1230068 C182.546376,4.01515771 181.9807,3.46305081 180.85297,3.46305081 L178.648646,3.46305081 L178.648646,14.6901334 Z M174.86903,0.0231748578 L181.75805,0.0231748578 C184.804099,0.0231748578 186.325992,1.64359727 186.325992,4.88489649 L186.325992,13.3055492 C186.325992,16.5223104 184.816318,18.1304637 181.798779,18.1304637 L178.648646,18.1304637 L178.648646,28.4078315 L174.86903,28.4078315 L174.86903,0.0231748578 Z" id="Fill-109" fill="#DEE9EE"></path>
                <path d="M198.215583,14.5715326 L198.215583,5.1230068 C198.215583,4.01515771 197.664389,3.46305081 196.562906,3.46305081 L195.537449,3.46305081 C194.436419,3.46305081 193.884772,4.01515771 193.884772,5.1230068 L193.884772,14.5715326 L198.215583,14.5715326 Z M193.884772,28.4078315 L190.105156,28.4078315 L190.105156,4.88489649 C190.105156,1.64359727 191.61302,0.0231748578 194.632369,0.0231748578 L197.467986,0.0231748578 C200.485525,0.0231748578 201.995199,1.64359727 201.995199,4.88489649 L201.995199,28.4078315 L198.215583,28.4078315 L198.215583,18.0114086 L193.884772,18.0114086 L193.884772,28.4078315 Z" id="Fill-110" fill="#DEE9EE"></path>
                <polygon id="Fill-111" fill="#DEE9EE" points="214.160839 13.7404186 214.160839 0.0231748578 217.940003 0.0231748578 217.940003 28.4078315 214.160839 28.4078315 214.160839 22.7540751 210.105626 9.82659411 210.105626 28.4078315 206.326009 28.4078315 206.326009 0.0231748578 210.105626 0.0231748578"></polygon>
                <polygon id="Fill-112" fill="#DEE9EE" points="228.728563 28.4078315 224.948947 28.4078315 224.948947 17.9705118 220.303621 0.0231748578 224.042509 0.0231748578 226.877673 12.3576521 226.996239 12.3576521 229.555807 0.0231748578 233.296505 0.0231748578 228.728563 17.9705118"></polygon>
                <path d="M7.7477169,7.68769106 L7.7477169,5.20071073 C7.7477169,4.0701412 7.19788046,3.50394761 6.09639744,3.50394761 L5.50764254,3.50394761 C4.43285939,3.50394761 3.89569409,4.0701412 3.89569409,5.20071073 L3.89569409,9.89748191 C3.89569409,10.4250507 3.99977835,10.7799441 4.21020958,10.9626165 C4.41883064,11.1471066 4.76004601,11.3852169 5.23204551,11.6746754 L8.80801876,13.6072768 C9.5949863,14.0566873 10.1516108,14.4043101 10.4787975,14.6528718 C10.8055315,14.9032512 11.0621219,15.2067964 11.2458532,15.5616898 C11.4277744,15.9165832 11.5214502,16.5950158 11.5214502,17.5942611 L11.5214502,23.632902 C11.5214502,26.8174001 10.0013675,28.4078315 6.96074936,28.4078315 L4.64148046,28.4078315 C1.62937239,28.4078315 0.123318362,26.6715348 0.123318362,23.1980326 L0.123318362,21.7780046 L3.89569409,21.7780046 L3.89569409,23.3170878 C3.89569409,24.4226648 4.45955927,24.9747717 5.58547947,24.9747717 L6.25388145,24.9747717 C7.24901752,24.9747717 7.7477169,24.4226648 7.7477169,23.3170878 L7.7477169,18.5012615 C7.7477169,17.9759647 7.64318009,17.6206169 7.43274887,17.4361268 C7.22231764,17.2516368 6.88291243,17.0153441 6.41091293,16.72634 L2.83493968,14.7133082 C2.04842469,14.2925255 1.47912902,13.9376321 1.12388491,13.646356 C0.770450953,13.3573518 0.515670779,12.9824644 0.358186764,12.523057 C0.201155289,12.0613774 0.123318362,11.4633752 0.123318362,10.7267783 L0.123318362,4.92397566 C0.123318362,1.68812935 1.62937239,0.0708878003 4.64148046,0.0708878003 L7.00147799,0.0708878003 C10.013586,0.0708878003 11.5214502,1.68812935 11.5214502,4.92397566 L11.5214502,7.68769106 L7.7477169,7.68769106 Z" id="Fill-113" fill="#003E4E"></path>
                <path d="M26.9272788,21.7780046 L26.9272788,23.5938229 C26.9272788,26.802859 25.4212248,28.4078315 22.4073065,28.4078315 L19.9712822,28.4078315 C16.957364,28.4078315 15.45131,26.802859 15.45131,23.5938229 L15.45131,4.88489649 C15.45131,1.6758603 16.957364,0.0708878003 19.9712822,0.0708878003 L22.4073065,0.0708878003 C25.4212248,0.0708878003 26.9272788,1.6758603 26.9272788,4.88489649 L26.9272788,8.08166364 L23.1549031,8.08166364 L23.1549031,5.16208597 C23.1549031,4.05605452 22.5910379,3.50394761 21.4651177,3.50394761 L20.7175211,3.50394761 C19.7219325,3.50394761 19.2236857,4.05605452 19.2236857,5.16208597 L19.2236857,23.3170878 C19.2236857,24.4208472 19.7219325,24.9747717 20.7175211,24.9747717 L21.6615202,24.9747717 C22.6566562,24.9747717 23.1549031,24.4208472 23.1549031,23.3170878 L23.1549031,21.7780046 L26.9272788,21.7780046 Z" id="Fill-114" fill="#003E4E"></path>
                <polygon id="Fill-115" fill="#003E4E" points="39.2698622 28.4078315 39.2698622 15.5421502 34.6313244 15.5421502 34.6313244 28.4078315 30.8589487 28.4078315 30.8589487 0.0708878003 34.6313244 0.0708878003 34.6313244 12.1077272 39.2698622 12.1077272 39.2698622 0.0708878003 43.0440481 0.0708878003 43.0440481 28.4078315"></polygon>
                <path d="M52.8302315,24.9747717 L54.7566955,24.9747717 C55.7522841,24.9747717 56.2505309,24.4208472 56.2505309,23.3170878 L56.2505309,5.16208597 C56.2505309,4.05605452 55.6866657,3.50394761 54.5589354,3.50394761 L52.7913131,3.50394761 C51.68983,3.50394761 51.1399936,4.05605452 51.1399936,5.16208597 L51.1399936,23.3170878 C51.1399936,24.4208472 51.7038588,24.9747717 52.8302315,24.9747717 L52.8302315,24.9747717 Z M51.9269611,28.4078315 C48.886343,28.4078315 47.3676179,26.802859 47.3676179,23.5938229 L47.3676179,4.9257933 C47.3676179,1.68812935 48.8736719,0.0708878003 51.8862325,0.0708878003 L55.5029344,0.0708878003 C58.5168526,0.0708878003 60.0229066,1.68812935 60.0229066,4.9257933 L60.0229066,23.5938229 C60.0229066,26.802859 58.5028239,28.4078315 55.4640159,28.4078315 L51.9269611,28.4078315 Z" id="Fill-116" fill="#003E4E"></path>
                <polygon id="Fill-117" fill="#003E4E" points="70.3607367 3.50394761 70.3607367 28.4078315 66.5865508 28.4078315 66.5865508 3.50394761 62.9716591 3.50394761 62.9716591 0.0708878003 73.9756284 0.0708878003 73.9756284 3.50394761"></polygon>
                <polygon id="Fill-118" fill="#003E4E" points="83.1341384 3.50394761 83.1341384 28.4078315 79.3604051 28.4078315 79.3604051 3.50394761 75.7450608 3.50394761 75.7450608 0.0708878003 86.7494827 0.0708878003 86.7494827 3.50394761"></polygon>
                <path d="M134.237701,21.7657355 L134.237701,23.5847347 C134.237701,26.8014958 132.728027,28.4078315 129.708678,28.4078315 L127.267676,28.4078315 C124.250138,28.4078315 122.740463,26.8014958 122.740463,23.5847347 L122.740463,4.84581732 C122.740463,1.63132822 124.250138,0.0231748578 127.267676,0.0231748578 L129.708678,0.0231748578 C132.728027,0.0231748578 134.237701,1.63132822 134.237701,4.84581732 L134.237701,8.04803737 L130.458538,8.04803737 L130.458538,5.1230068 C130.458538,4.01515771 129.892862,3.46305081 128.765132,3.46305081 L128.017083,3.46305081 C127.018326,3.46305081 126.52008,4.01515771 126.52008,5.1230068 L126.52008,23.3079996 C126.52008,24.4158487 127.018326,24.9693188 128.017083,24.9693188 L128.961082,24.9693188 C129.959838,24.9693188 130.458538,24.4158487 130.458538,23.3079996 L130.458538,21.7657355 L134.237701,21.7657355 Z" id="Fill-119" fill="#003E4E"></path>
                <path d="M143.451421,24.9693188 L145.379695,24.9693188 C146.376642,24.9693188 146.875341,24.4158487 146.875341,23.3079996 L146.875341,5.1230068 C146.875341,4.01515771 146.311476,3.46305081 145.181935,3.46305081 L143.410693,3.46305081 C142.30921,3.46305081 141.757563,4.01515771 141.757563,5.1230068 L141.757563,23.3079996 C141.757563,24.4158487 142.321881,24.9693188 143.451421,24.9693188 L143.451421,24.9693188 Z M142.544531,28.4078315 C139.498482,28.4078315 137.978399,26.8014958 137.978399,23.5847347 L137.978399,4.88489649 C137.978399,1.64359727 139.486264,0.0231748578 142.505612,0.0231748578 L146.127745,0.0231748578 C149.145283,0.0231748578 150.654957,1.64359727 150.654957,4.88489649 L150.654957,23.5847347 C150.654957,26.8014958 149.132612,28.4078315 146.088826,28.4078315 L142.544531,28.4078315 Z" id="Fill-120" fill="#003E4E"></path>
                <path d="M104.165043,4.93306384 C103.700284,4.41821847 103.157688,4.16056858 102.538613,4.16056858 C101.91818,4.16056858 101.382825,4.38595544 100.930285,4.83536591 C100.477744,5.28613962 100.251474,5.87187279 100.251474,6.59074779 C100.251474,7.46593948 100.465073,8.2111702 100.894987,8.82734877 C101.324447,9.44489057 101.776988,10.0751558 102.252607,10.7176901 C102.968526,10.2296549 103.579908,9.70254046 104.094446,9.13634687 C104.605364,8.57151651 104.861502,7.78720662 104.861502,6.78432601 C104.861502,6.06363338 104.629801,5.4474548 104.165043,4.93306384 L104.165043,4.93306384 Z M100.751531,16.1937727 C100.298991,16.3996199 99.8586693,16.6518169 99.4292086,16.9462739 C98.9997479,17.2425486 98.6196141,17.5765392 98.2856393,17.9491546 C97.9516646,18.3217699 97.6846659,18.7389174 97.4814753,19.2024145 C97.2778322,19.6654573 97.1773682,20.1803026 97.1773682,20.7446786 C97.1773682,21.2595239 97.2778322,21.7352901 97.4814753,22.1719772 C97.6846659,22.6104818 97.9516646,22.9885501 98.2856393,23.3098172 C98.6196141,23.6310844 99.0069885,23.8882799 99.4468577,24.0818581 C99.8871794,24.2736187 100.34696,24.3713166 100.822128,24.3713166 C101.729018,24.3713166 102.520964,24.1459298 103.199774,23.6951561 C103.878585,23.2457456 104.516666,22.6600124 105.112662,21.9411374 L100.751531,16.1937727 Z M107.792605,25.605037 C106.768959,26.6842583 105.678337,27.5008312 104.522097,28.0543014 C103.365856,28.6064083 102.061635,28.8835977 100.608529,28.8835977 C99.4645068,28.8835977 98.3865558,28.6968357 97.3733182,28.3242203 C96.360533,27.9516049 95.4853201,27.4117671 94.7467744,26.7037979 C94.0095863,25.9971919 93.4244517,25.1365413 92.9963486,24.1191196 C92.5668879,23.10397 92.3532889,21.9411374 92.3532889,20.6297131 C92.3532889,19.6781807 92.5067,18.79072 92.8180478,17.9686941 C93.1275853,17.1453051 93.5498054,16.4068905 94.0856131,15.7498151 C94.6227784,15.0950118 95.2309925,14.5110962 95.9098029,13.9962509 C96.5886133,13.4814055 97.3081524,13.0324494 98.0715878,12.645293 C97.3805588,11.7455632 96.8026649,10.8471967 96.3374535,9.94564926 C95.8726946,9.04728271 95.640994,7.99305389 95.640994,6.78432601 C95.640994,5.83279362 95.8247253,4.97214302 96.1944507,4.19964776 C96.5637236,3.42760691 97.0588027,2.76735066 97.6774252,2.21342612 C98.2978579,1.66131922 99.0069885,1.23735564 99.803912,0.94062658 C100.603098,0.646169564 101.430342,0.49712342 102.289716,0.49712342 C103.240503,0.49712342 104.147394,0.63889902 105.004957,0.921086994 C105.862069,1.2050926 106.606497,1.62224004 107.239149,2.17434695 C107.870442,2.72827149 108.370499,3.41533786 108.740225,4.23872693 C109.109498,5.06075277 109.293229,6.01228516 109.293229,7.09332412 C109.293229,8.71192889 108.858338,10.0751558 107.988555,11.1811873 C107.118773,12.2867643 106.040822,13.2114866 104.755608,13.9571717 L108.043313,18.3149538 C108.305334,17.801926 108.508524,17.2675411 108.649717,16.7154342 C108.793172,16.161964 108.900877,15.6025866 108.971473,15.036393 L113.367902,15.036393 C113.247526,16.271931 112.985958,17.4665722 112.581387,18.6234975 C112.176363,19.7808771 111.617928,20.8478294 110.90201,21.8257175 L116.084953,28.3437599 L109.866145,28.3437599 L107.792605,25.605037 Z" id="Fill-121" fill="#003E4E"></path>
            </g>
        </g>
    </g>
</svg>